<svg version="1.1" id="Layer_1" xmlns="http://www.w3.org/2000/svg" x="0px" y="0px"
	 width="100%" viewBox="0 0 308 355" enable-background="new 0 0 308 355" xml:space="preserve">
<path fill="#111211" opacity="1.000000" stroke="none"
	d="
M309.000000,7.000000 
	C309.000000,120.688683 309.000000,234.377365 308.534302,348.589600 
	C208.304443,349.117249 108.540245,349.129822 8.776089,349.078278 
	C6.183875,349.076935 3.592023,348.375122 1.000002,348.000000 
	C1.000000,234.977997 1.000000,121.955978 1.334554,8.195694 
	C4.483685,7.252348 7.298205,6.868904 10.112846,6.868017 
	C107.746132,6.837241 205.379425,6.841621 303.012726,6.849288 
	C305.008484,6.849444 307.004242,6.947576 309.000000,7.000000 
M86.312958,55.046871 
	C86.014946,56.043880 85.716927,57.040890 85.196655,58.690636 
	C85.188240,59.148067 85.179832,59.605499 84.646896,60.631321 
	C84.440903,62.757946 84.234917,64.884567 83.314667,67.076462 
	C82.841492,67.145027 82.368317,67.213585 81.516327,66.561356 
	C81.064789,64.638863 80.738022,62.675755 80.129028,60.804504 
	C79.423157,58.635590 78.850258,56.243217 77.485542,54.533966 
	C76.615028,53.443691 74.412498,53.416924 72.807205,52.913311 
	C72.293755,54.552055 70.995331,56.457989 71.441887,57.769962 
	C72.204376,60.010094 74.008026,61.917282 75.473007,63.891083 
	C77.072296,66.045822 78.969452,68.080048 76.020447,71.010864 
	C72.969215,70.411018 69.938393,69.585686 66.858109,69.306953 
	C65.330399,69.168716 63.711765,70.035393 62.134266,70.447433 
	C63.153976,72.025826 63.831650,74.254150 65.280701,75.016716 
	C67.058388,75.952225 69.477654,75.698715 71.625397,75.895302 
	C78.248642,76.501556 82.710213,79.348083 85.903610,85.758232 
	C89.014114,92.001976 93.542778,97.821045 98.476364,102.810501 
	C106.413551,110.837570 117.144775,114.109497 127.617050,117.576614 
	C134.353134,119.806770 134.901672,120.768677 132.565002,127.285957 
	C128.867111,137.599777 126.512589,148.126022 128.138306,159.080338 
	C129.037308,165.137787 130.769623,171.082153 132.303452,177.031815 
	C133.794083,182.813782 132.686600,185.017761 126.934113,186.587036 
	C124.689606,187.199326 122.375671,187.554764 120.097504,188.046387 
	C110.660042,190.082977 101.179825,191.944321 91.800697,194.221664 
	C83.153236,196.321381 81.043633,199.444077 83.121384,207.789124 
	C84.475143,213.226318 86.681114,218.506165 88.989998,223.638443 
	C92.879639,232.284470 97.393715,240.652802 101.184868,249.338821 
	C103.806572,255.345459 102.598907,258.584991 96.889221,261.883514 
	C90.116005,265.796417 83.195427,269.485779 76.161110,272.906830 
	C68.162819,276.796722 66.111427,275.857574 62.555866,267.675873 
	C62.290676,267.065643 62.137005,266.206512 61.660095,265.928253 
	C60.475811,265.237305 59.134464,264.815552 57.856190,264.285706 
	C57.562016,265.554901 56.961922,266.844757 57.045956,268.088409 
	C57.169476,269.916504 57.781517,271.711578 58.370651,274.350250 
	C55.636059,273.929596 53.855385,273.817657 52.166359,273.364227 
	C47.824955,272.198792 43.524334,270.881470 39.207130,269.625824 
	C36.638237,268.878693 33.948929,268.446472 33.156162,271.833893 
	C32.343700,275.305511 34.758839,276.617157 37.714985,276.992279 
	C41.509628,277.473785 45.387230,277.509186 49.100567,278.323090 
	C50.619228,278.656006 51.801537,280.523407 53.136868,281.692688 
	C51.703655,282.477844 50.315250,283.820953 48.828579,283.940369 
	C44.854473,284.259521 40.833897,283.941986 36.840172,284.095520 
	C34.215317,284.196442 30.138826,283.058990 30.221426,287.218964 
	C30.309278,291.643372 34.503620,289.771210 36.951183,289.813477 
	C41.770309,289.896729 46.598381,289.462097 52.499489,289.192505 
	C48.836811,292.824707 45.964294,295.372284 43.506428,298.271454 
	C42.627598,299.308044 42.029072,302.073151 42.565197,302.514099 
	C43.751980,303.490082 46.128323,304.294037 47.314297,303.717499 
	C49.441704,302.683289 51.290260,300.777771 52.835499,298.892303 
	C62.448582,287.162506 74.266541,279.177307 89.302429,275.932648 
	C95.935966,274.501221 102.520287,272.429718 108.795349,269.844055 
	C118.648567,265.783966 119.621788,262.693085 115.822296,252.784866 
	C111.352798,241.129379 106.786469,229.504028 102.672440,217.722336 
	C100.763054,212.254257 102.374039,210.614151 108.182732,210.018387 
	C113.291725,209.494400 118.421822,208.947174 123.456337,207.967102 
	C141.483536,204.457718 159.211624,204.435455 176.404739,211.868683 
	C181.065338,213.883621 181.362701,215.925964 177.312851,218.827881 
	C171.761993,222.805420 166.053818,226.563232 160.496689,230.532303 
	C157.280975,232.829056 153.221817,234.990448 154.456802,239.878830 
	C155.655289,244.622742 160.098740,244.963455 164.064377,245.633804 
	C164.392822,245.689331 164.724258,245.726822 165.053848,245.775833 
	C183.932571,248.583328 202.427399,252.497131 218.790314,263.182159 
	C221.065125,264.667603 224.022079,265.392761 226.757721,265.753479 
	C227.913361,265.905884 229.313690,264.202667 230.602798,263.342926 
	C229.684799,262.399811 228.928802,261.112427 227.813904,260.587830 
	C225.721741,259.603363 223.247360,259.370148 221.256149,258.248810 
	C219.128693,257.050720 217.375717,255.187622 215.459259,253.614822 
	C215.779114,253.102768 216.098969,252.590714 216.418823,252.078659 
	C218.368225,252.078659 220.322830,251.987610 222.265884,252.098618 
	C225.751190,252.297714 229.255035,252.970688 232.698715,252.721436 
	C234.154694,252.616043 235.477966,250.677231 236.861572,249.571777 
	C235.497391,248.684387 234.175400,247.123932 232.761139,247.035248 
	C228.451553,246.765030 224.103607,247.183304 219.776321,247.084213 
	C217.809509,247.039154 215.856140,246.407150 213.896683,246.041397 
	C213.816391,245.494766 213.736099,244.948135 213.655807,244.401505 
	C215.742355,243.277054 217.751724,241.962509 219.934875,241.075974 
	C222.705307,239.950943 225.791855,239.502869 228.399445,238.117798 
	C229.878387,237.332230 230.672028,235.256500 231.774338,233.761841 
	C229.827332,233.078354 227.607773,231.443863 225.989548,231.907608 
	C222.525772,232.900269 219.449097,235.162018 216.071213,236.559052 
	C212.702652,237.952286 208.997070,241.940552 205.773895,236.489883 
	C203.689896,232.965683 205.341782,230.932587 212.110046,228.061478 
	C220.107498,224.668945 221.569427,216.853943 215.237701,210.927444 
	C213.792206,209.574463 212.091507,208.466095 210.412430,207.395401 
	C201.282501,201.573502 192.095459,195.840881 182.983566,189.991135 
	C177.870804,186.708786 177.197510,184.173019 179.685684,178.659348 
	C182.966461,171.389297 186.255447,164.122925 189.579849,156.872818 
	C189.751633,156.498215 190.288589,156.291046 190.949341,155.777618 
	C191.806351,156.876129 192.808624,157.774551 193.336349,158.896255 
	C199.458557,171.909332 210.293900,176.238251 223.922256,176.193192 
	C236.644043,176.151123 249.435730,172.400116 262.135895,176.759247 
	C262.955658,177.040604 264.401367,175.498138 265.555908,174.804077 
	C264.615784,173.896622 263.797119,172.429184 262.711243,172.193680 
	C260.137726,171.635498 257.330048,172.033096 254.829575,171.309662 
	C253.379852,170.890244 252.341827,169.047867 251.118530,167.845840 
	C252.264908,166.840897 253.264969,165.535019 254.587357,164.892075 
	C257.574554,163.439697 260.884857,162.591934 263.719360,160.915833 
	C264.803833,160.274567 264.948303,158.043686 265.521149,156.537201 
	C264.056976,156.188202 262.399109,155.228439 261.169250,155.618408 
	C258.671844,156.410294 256.462463,158.063019 254.028091,159.114975 
	C251.713272,160.115250 249.214767,161.048767 248.140335,157.596985 
	C247.985443,156.759521 247.830566,155.922058 248.045471,154.429306 
	C250.750061,148.737350 250.661774,148.458954 245.371277,148.299500 
	C245.086731,149.571716 244.802185,150.843933 244.303757,152.892273 
	C243.477997,159.321518 240.841858,162.431519 234.773300,164.135925 
	C222.262451,167.649689 209.535172,160.781204 205.115967,148.552582 
	C203.223083,143.314743 200.286072,138.463181 198.153839,133.299698 
	C196.780884,129.974854 195.140244,126.402153 195.138885,122.939941 
	C195.135498,114.311272 195.740051,105.656677 196.584167,97.059990 
	C197.590744,86.808846 197.866028,76.876091 192.179047,67.585815 
	C185.435104,56.568821 171.749344,50.643764 162.478943,56.080093 
	C151.003052,62.809776 143.485077,72.632500 143.043579,86.674698 
	C142.907928,90.989777 142.754761,95.309685 142.410126,99.611397 
	C142.015900,104.532173 139.300278,106.590775 134.316025,106.012779 
	C118.499710,104.178665 104.762733,98.243622 94.349800,85.830856 
	C93.221535,84.485909 92.989899,82.388802 92.342361,80.640587 
	C94.219879,80.225166 96.087044,79.748268 97.980827,79.429497 
	C98.597946,79.325623 99.343117,79.862175 99.928360,79.711662 
	C101.730850,79.248116 103.564476,78.748856 105.199234,77.902657 
	C105.596428,77.697060 105.589088,75.431999 105.232880,75.266739 
	C103.556244,74.488808 101.709885,74.043861 99.893631,73.606529 
	C96.150734,72.705284 92.388458,71.884552 88.659851,70.315742 
	C89.226852,65.862846 89.793861,61.409950 90.698982,56.319866 
	C90.677925,52.781803 88.813560,53.744434 86.312958,55.046871 
z"/>


<path fill="#0EA077" opacity="1.000000" stroke="none"
	d="
M85.171425,60.062931
	C85.179832,59.605499 85.188240,59.148067 85.610153,58.248062
	C86.323158,56.794666 86.622665,55.783848 86.922165,54.773029
	C88.813560,53.744434 90.677925,52.781803 90.245071,56.780235
	C87.649437,61.689972 85.054863,66.101341 88.634155,71.030701
	C92.388458,71.884552 96.150734,72.705284 99.893631,73.606529
	C101.709885,74.043861 103.556244,74.488808 105.232880,75.266739
	C105.589088,75.431999 105.596428,77.697060 105.199234,77.902657
	C103.564476,78.748856 101.730850,79.248116 99.928360,79.711662
	C99.343117,79.862175 98.597946,79.325623 97.980827,79.429497
	C96.087044,79.748268 94.219879,80.225166 92.342361,80.640579
	C92.989899,82.388802 93.221535,84.485909 94.349800,85.830856
	C104.762733,98.243622 118.499710,104.178665 134.316025,106.012779
	C139.300278,106.590775 142.015900,104.532173 142.410126,99.611397
	C142.754761,95.309685 142.907928,90.989777 143.043579,86.674698
	C143.485077,72.632500 151.003052,62.809776 162.478943,56.080093
	C171.749344,50.643764 185.435104,56.568821 192.179047,67.585815
	C197.866028,76.876091 197.590744,86.808846 196.584167,97.059990
	C195.740051,105.656677 195.135498,114.311272 195.138885,122.939941
	C195.140244,126.402153 196.780884,129.974854 198.153839,133.299698
	C200.286072,138.463181 203.223083,143.314743 205.115967,148.552582
	C209.535172,160.781204 222.262451,167.649689 234.773300,164.135925
	C240.841858,162.431519 243.477997,159.321518 244.694504,152.354599
	C245.395844,150.555481 245.706436,149.294037 246.017029,148.032593
	C250.661774,148.458954 250.750061,148.737350 247.656158,154.932678
	C247.378372,156.255402 247.489899,157.074738 247.601440,157.894089
	C249.214767,161.048767 251.713272,160.115250 254.028091,159.114975
	C256.462463,158.063019 258.671844,156.410294 261.169250,155.618408
	C262.399109,155.228439 264.056976,156.188202 265.521149,156.537201
	C264.948303,158.043686 264.803833,160.274567 263.719360,160.915833
	C260.884857,162.591934 257.574554,163.439697 254.587357,164.892075
	C253.264969,165.535019 252.264908,166.840897 251.118530,167.845840
	C252.341827,169.047867 253.379852,170.890244 254.829575,171.309662
	C257.330048,172.033096 260.137726,171.635498 262.711243,172.193680
	C263.797119,172.429184 264.615784,173.896622 265.555908,174.804077
	C264.401367,175.498138 262.955658,177.040604 262.135895,176.759247
	C249.435730,172.400116 236.644043,176.151123 223.922256,176.193192
	C210.293900,176.238251 199.458557,171.909332 193.336349,158.896255
	C192.808624,157.774551 191.806351,156.876129 190.949341,155.777618
	C190.288589,156.291046 189.751633,156.498215 189.579849,156.872818
	C186.255447,164.122925 182.966461,171.389297 179.685684,178.659348
	C177.197510,184.173019 177.870804,186.708786 182.983566,189.991135
	C192.095459,195.840881 201.282501,201.573502 210.412430,207.395401
	C212.091507,208.466095 213.792206,209.574463 215.237701,210.927444
	C221.569427,216.853943 220.107498,224.668945 212.110046,228.061478
	C205.341782,230.932587 203.689896,232.965683 205.773895,236.489883
	C208.997070,241.940552 212.702652,237.952286 216.071213,236.559052
	C219.449097,235.162018 222.525772,232.900269 225.989548,231.907608
	C227.607773,231.443863 229.827332,233.078354 231.774323,233.761841
	C230.672028,235.256500 229.878387,237.332230 228.399445,238.117798
	C225.791855,239.502869 222.705307,239.950943 219.934875,241.075974
	C217.751724,241.962509 215.742355,243.277054 213.655807,244.401505
	C213.736099,244.948135 213.816391,245.494766 213.896683,246.041397
	C215.856140,246.407150 217.809509,247.039154 219.776321,247.084213
	C224.103607,247.183304 228.451553,246.765030 232.761139,247.035248
	C234.175400,247.123932 235.497391,248.684387 236.861572,249.571777
	C235.477966,250.677231 234.154694,252.616043 232.698715,252.721436
	C229.255035,252.970688 225.751190,252.297714 222.265884,252.098618
	C220.322830,251.987610 218.368225,252.078659 216.418823,252.078659
	C216.098969,252.590714 215.779114,253.102768 215.459259,253.614822
	C217.375717,255.187622 219.128693,257.050720 221.256149,258.248810
	C223.247360,259.370148 225.721741,259.603363 227.813904,260.587830
	C228.928802,261.112427 229.684799,262.399811 230.602798,263.342926
	C229.313690,264.202667 227.913361,265.905884 226.757721,265.753479
	C224.022079,265.392761 221.065125,264.667603 218.790314,263.182159
	C202.427399,252.497131 183.932571,248.583328 165.053848,245.775833
	C164.724258,245.726822 164.392822,245.689331 164.064377,245.633804
	C160.098740,244.963455 155.655289,244.622742 154.456802,239.878830
	C153.221817,234.990448 157.280975,232.829056 160.496689,230.532303
	C166.053818,226.563232 171.761993,222.805420 177.312851,218.827881
	C181.362701,215.925964 181.065338,213.883621 176.404739,211.868683
	C159.211624,204.435455 141.483536,204.457718 123.456337,207.967102
	C118.421822,208.947174 113.291725,209.494400 108.182732,210.018387
	C102.374039,210.614151 100.763054,212.254257 102.672440,217.722336
	C106.786469,229.504028 111.352798,241.129379 115.822296,252.784866
	C119.621788,262.693085 118.648567,265.783966 108.795349,269.844055
	C102.520287,272.429718 95.935966,274.501221 89.302429,275.932648
	C74.266541,279.177307 62.448582,287.162506 52.835499,298.892303
	C51.290260,300.777771 49.441704,302.683289 47.314297,303.717499
	C46.128323,304.294037 43.751980,303.490082 42.565197,302.514099
	C42.029072,302.073151 42.627598,299.308044 43.506428,298.271454
	C45.964294,295.372284 48.836811,292.824707 52.499489,289.192505
	C46.598381,289.462097 41.770309,289.896729 36.951183,289.813477
	C34.503620,289.771210 30.309278,291.643372 30.221426,287.218964
	C30.138826,283.058990 34.215317,284.196442 36.840172,284.095520
	C40.833897,283.941986 44.854473,284.259521 48.828579,283.940369
	C50.315250,283.820953 51.703655,282.477844 53.136864,281.692688
	C51.801537,280.523407 50.619228,278.656006 49.100567,278.323090
	C45.387230,277.509186 41.509628,277.473785 37.714985,276.992279
	C34.758839,276.617157 32.343700,275.305511 33.156162,271.833893
	C33.948929,268.446472 36.638237,268.878693 39.207130,269.625824
	C43.524334,270.881470 47.824955,272.198792 52.166359,273.364227
	C53.855385,273.817657 55.636059,273.929596 58.370651,274.350250
	C57.781517,271.711578 57.169476,269.916504 57.045956,268.088409
	C56.961922,266.844757 57.562016,265.554901 57.856194,264.285706
	C59.134464,264.815552 60.475811,265.237305 61.660095,265.928253
	C62.137005,266.206512 62.290676,267.065643 62.555866,267.675873
	C66.111427,275.857574 68.162819,276.796722 76.161110,272.906830
	C83.195427,269.485779 90.116005,265.796417 96.889221,261.883514
	C102.598907,258.584991 103.806572,255.345459 101.184868,249.338821
	C97.393715,240.652802 92.879639,232.284470 88.989998,223.638443
	C86.681114,218.506165 84.475143,213.226318 83.121384,207.789124
	C81.043633,199.444077 83.153236,196.321381 91.800697,194.221664
	C101.179825,191.944321 110.660042,190.082977 120.097504,188.046387
	C122.375671,187.554764 124.689606,187.199326 126.934113,186.587036
	C132.686600,185.017761 133.794083,182.813782 132.303452,177.031815
	C130.769623,171.082153 129.037308,165.137787 128.138306,159.080338
	C126.512589,148.126022 128.867111,137.599777 132.565002,127.285957
	C134.901672,120.768677 134.353134,119.806770 127.617050,117.576614
	C117.144775,114.109497 106.413551,110.837570 98.476364,102.810501
	C93.542778,97.821045 89.014114,92.001976 85.903610,85.758232
	C82.710213,79.348083 78.248642,76.501556 71.625397,75.895302
	C69.477654,75.698715 67.058388,75.952225 65.280701,75.016716
	C63.831650,74.254150 63.153976,72.025826 62.134266,70.447433
	C63.711765,70.035393 65.330399,69.168716 66.858109,69.306953
	C69.938393,69.585686 72.969215,70.411018 76.786682,70.945282
	C79.000328,69.680511 80.447731,68.481323 81.895142,67.282135
	C82.368317,67.213585 82.841492,67.145027 84.031860,66.955887
	C84.889847,64.577843 85.030640,62.320389 85.171425,60.062931
M198.587372,235.911148
	C195.885529,232.737762 189.370361,233.702438 185.463791,237.854309
	C191.400024,242.872787 196.407745,242.411697 198.587372,235.911148
z"/>
<path fill="#0E8E6A" opacity="1.000000" stroke="none" 
	d="
M81.705734,66.921745 
	C80.447731,68.481323 79.000328,69.680511 77.212379,70.911125 
	C78.969452,68.080048 77.072296,66.045822 75.473007,63.891083 
	C74.008026,61.917282 72.204376,60.010094 71.441887,57.769962 
	C70.995331,56.457989 72.293755,54.552055 72.807205,52.913311 
	C74.412498,53.416924 76.615028,53.443691 77.485542,54.533966 
	C78.850258,56.243217 79.423157,58.635590 80.129028,60.804504 
	C80.738022,62.675755 81.064789,64.638863 81.705734,66.921745 
z"/>
<path fill="#0E8E6A" opacity="1.000000" stroke="none" 
	d="
M88.647003,70.673218 
	C85.054863,66.101341 87.649437,61.689972 90.076012,57.098831 
	C89.793861,61.409950 89.226852,65.862846 88.647003,70.673218 
z"/>
<path fill="#0E8E6A" opacity="1.000000" stroke="none" 
	d="
M84.909164,60.347126 
	C85.030640,62.320389 84.889847,64.577843 84.388992,66.923248 
	C84.234917,64.884567 84.440903,62.757946 84.909164,60.347126 
z"/>
<path fill="#0E795C" opacity="1.000000" stroke="none"
	d="
M245.694153,148.166046
	C245.706436,149.294037 245.395844,150.555481 244.801453,151.966537
	C244.802185,150.843933 245.086731,149.571716 245.694153,148.166046
z"/>
<path fill="#0E8E6A" opacity="1.000000" stroke="none" 
	d="
M86.617561,54.909950 
	C86.622665,55.783848 86.323158,56.794666 85.721283,57.921692 
	C85.716927,57.040890 86.014946,56.043880 86.617561,54.909950 
z"/>
<path fill="#0E795C" opacity="1.000000" stroke="none" 
	d="
M247.870880,157.745544 
	C247.489899,157.074738 247.378372,156.255402 247.471252,155.260315 
	C247.830566,155.922058 247.985443,156.759521 247.870880,157.745544 
z"/>
<path fill="#111F1B" opacity="1.000000" stroke="none" 
	d="
M198.617584,236.275772 
	C196.407745,242.411697 191.400024,242.872787 185.463791,237.854309 
	C189.370361,233.702438 195.885529,232.737762 198.617584,236.275772 
z"/>
</svg>