<svg version="1.1" id="Layer_1" xmlns="http://www.w3.org/2000/svg" x="0px" y="0px"
	 width="100%" viewBox="0 0 947 355" enable-background="new 0 0 947 355" xml:space="preserve">
<path fill="#111111" opacity="1.000000" stroke="none" 
	d="
M271.000000,7.000275 
	C485.491547,7.000275 699.483093,7.000189 913.474609,7.000408 
	C931.406982,7.000426 939.999817,15.664275 939.999939,33.747578 
	C940.000549,130.077103 940.000732,226.406616 939.999756,322.736145 
	C939.999573,340.309082 931.227722,348.999390 913.491333,348.999420 
	C619.502930,348.999908 325.514557,348.999847 31.526188,348.999512 
	C13.589274,348.999512 5.000783,340.339661 5.000627,322.252380 
	C4.999794,226.089508 4.999676,129.926651 5.000234,33.763786 
	C5.000340,15.465523 13.547289,6.999881 32.009960,7.000013 
	C111.506638,7.000582 191.003326,7.000264 271.000000,7.000275 
M64.844940,297.585846 
	C64.472824,299.451538 64.100716,301.317200 63.728611,303.182922 
	C65.970039,302.875610 68.642693,303.224884 70.349617,302.103729 
	C72.778786,300.508270 74.536919,297.866516 76.514809,295.612976 
	C84.630890,286.365906 94.395660,279.843750 106.462296,276.814423 
	C113.543907,275.036560 120.725014,273.334167 127.477989,270.637695 
	C139.986328,265.643066 140.735260,263.208618 135.880844,250.647324 
	C131.746078,239.948242 127.459435,229.299591 123.674858,218.476578 
	C121.462769,212.150497 123.146675,210.371933 129.694260,209.952850 
	C133.978195,209.678650 138.283035,209.149780 142.485413,208.283463 
	C160.598526,204.549454 178.501633,204.198105 195.975403,211.249695 
	C197.851608,212.006836 199.398407,213.580231 201.098007,214.774979 
	C199.797440,216.355957 198.748047,218.276306 197.151810,219.457825 
	C190.997009,224.013443 184.490295,228.110855 178.513245,232.878586 
	C176.767914,234.270798 175.099091,237.691544 175.639969,239.517548 
	C176.284912,241.694778 179.127640,243.556488 181.426437,244.800583 
	C183.217773,245.770035 185.637192,245.563553 187.771179,245.917664 
	C205.888565,248.923996 223.777557,252.551270 239.475266,262.994141 
	C241.748947,264.506683 244.672012,265.377563 247.399155,265.725220 
	C248.659470,265.885864 250.171539,264.071777 251.569458,263.153015 
	C250.579697,262.235870 249.734207,260.997101 248.567749,260.473877 
	C246.614990,259.597992 244.352722,259.405853 242.411880,258.511261 
	C239.828842,257.320679 236.676956,256.359650 237.112457,252.023529 
	C239.190659,252.023529 241.144089,251.931610 243.085770,252.043335 
	C246.736496,252.253387 250.396744,252.889160 254.018661,252.697754 
	C255.341034,252.627884 256.565613,250.708130 257.834839,249.632324 
	C256.526337,248.715393 255.262344,247.097733 253.901047,247.011215 
	C249.592636,246.737381 245.243896,247.176941 240.918747,247.055634 
	C238.651596,246.992050 236.401138,246.333130 234.143143,245.943054 
	C234.108765,245.377380 234.074387,244.811691 234.040009,244.246017 
	C236.992249,242.895844 239.898804,241.430908 242.911011,240.231323 
	C245.373932,239.250473 248.098740,238.853653 250.437241,237.665924 
	C251.566147,237.092545 253.012848,234.743042 252.672409,234.164047 
	C251.895157,232.842285 250.183990,231.513885 248.703857,231.319809 
	C247.264786,231.131104 245.593765,232.255844 244.107147,232.974609 
	C240.360458,234.786057 236.714691,236.814651 232.922226,238.519974 
	C230.423950,239.643326 228.041306,239.542557 226.633041,236.555176 
	C225.244308,233.609222 225.984650,231.343094 228.748672,229.808502 
	C230.190536,229.007980 231.821945,228.556793 233.335617,227.876358 
	C241.069748,224.399719 242.271622,216.066315 235.740768,210.590439 
	C233.710022,208.887695 231.389893,207.517700 229.145172,206.084763 
	C220.583313,200.619202 211.967255,195.237915 203.438034,189.722153 
	C200.354996,187.728378 197.731750,185.159683 199.571869,181.054260 
	C203.424927,172.457932 207.490814,163.957016 211.688065,154.947357 
	C212.783264,156.651871 214.001022,158.179367 214.827026,159.895447 
	C218.695816,167.933105 224.894440,173.457748 233.613281,174.864578 
	C240.599487,175.991852 247.872986,176.107071 254.956879,175.668488 
	C264.098145,175.102539 273.145966,173.656021 282.164856,176.673843 
	C283.195709,177.018784 284.802734,175.641861 286.142609,175.063324 
	C285.002075,174.053162 284.003876,172.484146 282.691162,172.149750 
	C279.996704,171.463379 277.059540,171.716293 274.377838,171.000061 
	C273.351105,170.725861 272.255188,168.910461 272.129395,167.699844 
	C272.046326,166.900650 273.478027,165.604904 274.509827,165.098755 
	C276.737854,164.005814 279.194397,163.388290 281.465759,162.371460 
	C283.971832,161.249557 288.462524,160.934265 286.372589,156.727081 
	C284.460175,152.877197 281.583618,156.030533 279.196533,157.182251 
	C277.555725,157.973892 275.944275,158.992493 274.203705,159.359283 
	C272.782684,159.658722 270.510315,159.683167 269.848572,158.850037 
	C269.054291,157.850052 269.340576,155.774185 269.592499,154.235153 
	C269.768616,153.158829 271.140198,152.196594 271.129700,151.192322 
	C271.117065,149.988800 270.492859,148.369980 269.577454,147.743210 
	C268.948120,147.312286 266.888184,147.913788 266.334473,148.680130 
	C265.528503,149.795609 265.232605,151.467026 265.191193,152.914902 
	C265.017853,158.979141 261.613281,162.328781 256.186279,164.077408 
	C243.602737,168.131943 230.341782,161.025146 225.829224,148.285721 
	C223.974655,143.050064 220.968750,138.233032 218.757614,133.108612 
	C217.528183,130.259369 216.034180,127.155640 216.083817,124.190437 
	C216.250641,114.223274 216.647522,104.222412 217.722000,94.317490 
	C219.069122,81.899323 217.101212,70.691315 207.971115,61.615677 
	C200.357971,54.047920 189.635590,51.949726 182.061127,56.996857 
	C170.961212,64.393105 163.916580,74.399696 163.941345,88.436607 
	C163.949234,92.902641 163.509872,97.397453 162.897430,101.826866 
	C162.480804,104.840012 160.396423,106.401329 157.202332,106.174294 
	C139.982285,104.950294 125.246956,98.672630 114.287117,84.889145 
	C113.477753,83.871262 112.768555,81.814293 113.261841,80.971283 
	C113.834167,79.993195 115.766144,79.466629 117.145050,79.387016 
	C119.104874,79.273888 121.178505,80.170471 123.048935,79.817215 
	C124.244247,79.591454 125.877510,77.952469 125.978325,76.827347 
	C126.061150,75.903053 124.340340,74.354744 123.116127,73.902145 
	C121.820030,73.422974 120.166740,73.940926 118.668388,73.972801 
	C109.905441,74.159203 107.403389,70.993881 109.725075,62.653812 
	C110.458481,60.019245 111.237404,57.397350 112.125412,54.319363 
	C110.339821,54.319363 108.436958,54.008804 108.301498,54.366875 
	C106.760811,58.439426 105.490051,62.614101 103.680069,68.203873 
	C102.543777,66.197258 101.524292,64.911469 101.053993,63.449066 
	C100.296944,61.095005 100.449501,58.269135 99.181137,56.315655 
	C98.170479,54.759079 95.613022,54.206825 93.742210,53.208733 
	C93.499512,55.328487 92.538147,57.713085 93.196899,59.500629 
	C94.011543,61.711182 96.336838,63.318737 97.684113,65.397659 
	C98.422882,66.537598 99.132919,68.400208 98.679413,69.406982 
	C98.242622,70.376656 96.229622,71.255470 95.018112,71.129158 
	C92.432159,70.859543 89.947380,69.676262 87.359833,69.341896 
	C86.001534,69.166389 84.513794,69.992485 83.084503,70.366272 
	C83.839050,71.956245 84.193497,74.270157 85.444626,74.961586 
	C87.194496,75.928658 89.605560,75.811142 91.746742,75.937790 
	C98.779755,76.353783 103.565025,79.170036 106.926178,85.989960 
	C110.005463,92.237930 114.564735,98.054657 119.523041,103.009506 
	C127.233017,110.714119 137.551498,114.059235 147.748978,117.330833 
	C155.585037,119.844833 156.086136,120.709419 153.287033,128.341812 
	C148.077301,142.547348 147.045547,156.839127 151.606766,171.395721 
	C155.729416,184.552628 155.121826,185.336700 141.598511,188.040970 
	C131.172150,190.125946 120.768242,192.400818 110.482643,195.083160 
	C104.220146,196.716339 102.128120,200.328354 103.768066,206.280838 
	C105.391907,212.174835 107.481995,217.994263 109.950439,223.589249 
	C113.840103,232.405563 118.501694,240.885315 122.284859,249.743149 
	C124.658546,255.300858 123.351685,258.802124 118.349930,261.623993 
	C110.815811,265.874603 103.154015,269.941254 95.324486,273.612671 
	C88.902939,276.623810 86.363266,275.233826 83.619240,268.393768 
	C83.309608,267.621918 83.151451,266.560669 82.566315,266.175293 
	C81.326897,265.359009 79.851883,264.900391 78.473495,264.295105 
	C78.324112,265.597961 77.951080,266.923248 78.078865,268.198334 
	C78.261093,270.016571 78.810516,271.798004 79.511391,275.006470 
	C72.347527,273.016418 66.485161,271.436859 60.654938,269.746399 
	C57.981850,268.971405 55.087490,267.969574 54.102959,271.660858 
	C53.074993,275.514984 56.031940,276.551758 59.028648,276.955750 
	C62.651047,277.444061 66.365784,277.414215 69.918343,278.177460 
	C71.497543,278.516754 72.777496,280.248932 74.193298,281.348877 
	C72.733528,282.231018 71.320770,283.764404 69.805206,283.873810 
	C65.163200,284.208954 60.458248,283.730347 55.827881,284.137695 
	C54.122459,284.287750 52.556824,286.026672 50.927444,287.040924 
	C52.507389,287.988525 54.079849,289.726746 55.668621,289.741791 
	C61.413250,289.796204 67.163368,289.271393 73.907333,288.912201 
	C70.562675,292.094360 67.958420,294.572083 64.844940,297.585846 
M396.944336,141.785309 
	C403.790192,133.837082 410.699707,125.942459 417.457092,117.919746 
	C421.278534,113.382820 425.380280,109.992584 431.932434,110.818138 
	C433.165192,110.973465 434.691620,108.798225 436.082550,107.698425 
	C434.729401,106.521538 433.501099,104.569450 431.997345,104.327240 
	C428.747772,103.803818 425.356934,104.147896 422.023926,104.154259 
	C416.858215,104.164116 411.670807,103.936829 406.541687,104.379097 
	C405.220764,104.492989 404.083130,106.732475 402.861298,107.995499 
	C404.138275,108.999771 405.286316,110.320595 406.732422,110.909622 
	C407.920593,111.393585 409.462799,111.008316 411.892914,111.008316 
	C410.689545,113.255371 410.216064,114.655533 409.332001,115.712219 
	C397.580505,129.758606 385.789734,143.772400 373.933929,157.730728 
	C373.173950,158.625488 371.799500,158.998352 370.710876,159.614014 
	C370.202301,158.335953 369.263306,157.061737 369.251923,155.779251 
	C369.140808,143.280869 369.182037,130.781097 369.185760,118.281723 
	C369.187927,110.976974 369.247772,110.886192 376.348907,111.023468 
	C379.004791,111.074806 382.062836,110.951622 381.625977,107.628654 
	C381.445526,106.255966 378.144379,104.389999 376.197449,104.308754 
	C367.546295,103.947731 358.871521,104.146950 350.205292,104.154282 
	C345.872620,104.157951 341.515045,103.930634 337.222107,104.351967 
	C335.893890,104.482315 334.741638,106.405464 333.508850,107.507812 
	C334.648193,108.671524 335.964355,110.963989 336.898438,110.817650 
	C343.469421,109.788162 343.491486,113.893059 343.486237,118.394730 
	C343.453949,146.059982 343.472107,173.725281 343.462982,201.390564 
	C343.462585,202.552124 343.363403,203.713959 343.301086,204.875153 
	C343.152344,207.646362 341.953186,209.270554 338.911835,208.944382 
	C336.270355,208.661087 333.475220,208.616959 333.573975,212.260956 
	C333.673035,215.915802 336.776062,215.494659 339.205841,215.506561 
	C350.038361,215.559601 360.871338,215.541153 371.704071,215.520248 
	C373.864899,215.516083 376.139038,215.769730 378.143188,215.173141 
	C379.331573,214.819382 380.860046,213.010742 380.825684,211.899902 
	C380.793365,210.853531 378.983734,209.767044 377.806976,208.900681 
	C377.371460,208.580078 376.511292,208.822952 375.845062,208.831116 
	C369.383209,208.910324 369.193542,208.728073 369.186554,202.125977 
	C369.178436,194.459686 369.528107,186.772873 369.071106,179.133911 
	C368.732819,173.478897 371.547638,170.237167 375.985931,167.012268 
	C377.114044,168.396423 378.229004,169.570847 379.124451,170.893814 
	C386.116974,181.225113 393.117737,191.551773 399.980133,201.969315 
	C401.098206,203.666580 401.547180,205.804642 402.305420,207.738937 
	C400.301086,208.143372 398.309540,208.780151 396.289032,208.891647 
	C393.923401,209.022186 391.200378,208.546768 391.025452,211.871368 
	C390.833527,215.519135 393.784424,215.484787 396.309021,215.509857 
	C402.308136,215.569443 408.308258,215.530518 414.307953,215.529633 
	C422.640869,215.528397 430.980652,215.699646 439.300598,215.370209 
	C440.883270,215.307541 442.387360,213.261169 443.927704,212.130066 
	C442.470123,211.084839 441.061432,209.961304 439.543152,209.013306 
	C437.432922,207.695663 434.478973,207.035614 433.201233,205.185745 
	C420.626038,186.979294 408.374664,168.549545 395.893158,150.277603 
	C393.821655,147.245071 393.850677,144.842560 396.944336,141.785309 
M815.164856,144.672501 
	C806.022522,155.379227 806.577209,168.065811 816.599243,177.478119 
	C820.561157,181.199020 820.621948,183.760727 816.838806,187.533127 
	C815.781982,188.587067 814.677551,189.598389 813.679932,190.705780 
	C806.851196,198.285736 807.274048,205.447861 814.923035,212.243958 
	C819.015991,215.880478 819.161621,218.702850 815.022705,222.083267 
	C808.270386,227.598282 804.859314,234.345444 806.943054,243.111374 
	C808.923950,251.444336 814.992676,255.684921 822.698608,258.165344 
	C832.223755,261.231354 841.982666,261.535370 851.813782,260.588440 
	C862.589050,259.550629 872.867004,256.844849 880.944580,249.138107 
	C890.979248,239.564209 893.088623,227.574921 889.539307,214.700928 
	C886.349243,203.130035 876.903503,198.852615 866.070740,197.774612 
	C857.327759,196.904556 848.466980,197.239868 839.660461,196.973312 
	C837.178406,196.898163 834.664307,196.793243 832.234985,196.332550 
	C828.956299,195.710785 826.606934,193.843170 827.213928,190.142731 
	C827.798157,186.581085 829.970703,184.551453 833.849609,184.935959 
	C836.165955,185.165558 838.480225,185.428879 840.801453,185.592987 
	C851.256592,186.332245 861.462341,185.446350 870.715759,180.003632 
	C885.368774,171.385025 886.181641,151.044067 872.460205,141.061829 
	C869.141907,138.647720 866.133972,135.807007 862.871887,133.068970 
	C859.517395,137.563171 854.594910,134.667969 850.234497,134.594238 
	C837.716797,134.382568 825.568420,135.093231 815.164856,144.672501 
M707.398865,192.776321 
	C709.897461,182.240524 709.881226,171.622513 707.862549,161.065353 
	C705.644836,149.467300 700.281250,139.768463 688.189636,136.269043 
	C675.839478,132.694778 664.068481,133.500427 655.075623,144.497162 
	C654.751709,144.893250 654.043762,144.975235 653.140991,145.364960 
	C653.012695,144.143158 652.859619,143.358429 652.858459,142.573486 
	C652.842041,131.579605 652.985901,120.582184 652.708252,109.595268 
	C652.662048,107.765739 650.873352,104.468010 649.769531,104.416306 
	C640.794983,103.995911 631.789673,104.101288 622.800110,104.315247 
	C621.825745,104.338440 620.146484,106.067177 620.146667,107.004494 
	C620.146851,107.962799 621.952087,109.848145 622.727356,109.731667 
	C628.745667,108.827370 628.177002,112.740532 628.172791,116.537086 
	C628.139343,147.020126 628.153809,177.503204 628.154236,207.986282 
	C628.154358,216.347946 628.163452,216.062180 636.374023,216.295837 
	C640.671021,216.418106 640.898865,213.914703 641.942139,210.960312 
	C642.801819,208.525696 644.536072,205.773193 646.665955,204.660233 
	C647.851624,204.040634 650.776001,206.283630 652.673950,207.589523 
	C656.472534,210.203217 659.718384,214.109009 663.870972,215.635742 
	C682.764954,222.582321 701.462769,212.800735 707.398865,192.776321 
M502.017456,205.215683 
	C503.017578,206.349701 503.996155,207.503632 505.022369,208.613541 
	C507.044006,210.800125 508.919037,214.602005 511.160461,214.838531 
	C519.058044,215.671936 527.088013,215.397659 535.059326,215.200165 
	C536.057678,215.175430 537.522034,213.199173 537.767639,211.932663 
	C537.898804,211.255966 535.752136,209.270218 534.863892,209.404114 
	C529.172974,210.261963 529.537048,206.505768 529.536072,202.928696 
	C529.530334,182.612625 529.533203,162.296539 529.533142,141.980469 
	C529.533142,140.187408 529.533142,138.394348 529.533142,136.197983 
	C521.233154,136.197983 513.446655,136.054550 505.674438,136.324036 
	C504.193878,136.375366 502.626892,137.908340 501.400848,139.074280 
	C500.995728,139.459534 501.299530,141.528671 501.682190,141.660828 
	C506.194794,143.219193 504.910461,146.972931 504.953217,150.104263 
	C505.055511,157.596497 505.045166,165.091644 504.970642,172.584549 
	C504.884033,181.291504 504.170227,190.012985 499.732208,197.676804 
	C497.655121,201.263580 494.550903,204.718887 491.082031,206.933472 
	C485.106598,210.748306 479.889984,208.138596 478.558624,201.277008 
	C477.993073,198.362381 477.895264,195.323975 477.882965,192.340591 
	C477.819855,177.020538 477.853699,161.700073 477.853699,146.379761 
	C477.853699,143.102081 477.853729,139.824402 477.853729,136.156921 
	C467.815857,136.156921 458.355835,136.019791 448.908844,136.309113 
	C447.538483,136.351089 446.230713,138.435913 444.894012,139.575439 
	C446.240936,140.445786 447.647827,142.128937 448.923645,142.034882 
	C452.833374,141.746643 453.436768,143.924957 453.459045,146.900650 
	C453.483978,150.230972 453.437225,153.561905 453.471863,156.892059 
	C453.612061,170.372162 453.289856,183.879730 454.061615,197.324158 
	C454.810974,210.377945 462.547455,216.848206 475.624207,217.228241 
	C486.174835,217.534882 494.779327,213.885178 502.017456,205.215683 
M791.526978,199.470978 
	C791.526917,186.146210 791.599182,172.820938 791.504700,159.496841 
	C791.423889,148.108032 786.661743,140.701172 776.335693,137.394028 
	C762.653015,133.011841 748.669373,132.917923 735.300659,138.350601 
	C730.872131,140.150253 726.824036,144.130188 723.912598,148.079498 
	C720.812927,152.284164 722.277954,158.800049 725.545715,161.924240 
	C729.189453,165.407898 736.050476,166.186493 740.449036,163.429367 
	C745.273071,160.405487 744.150085,156.119781 743.317627,151.470749 
	C742.863831,148.936707 743.610962,145.124878 745.333740,143.452179 
	C751.947449,137.031082 764.630188,141.275284 766.482727,150.208908 
	C766.883789,152.143112 766.968384,154.171219 766.967346,156.155930 
	C766.960510,169.197769 768.483582,168.478058 754.822693,169.194748 
	C745.499268,169.683884 736.245422,171.081161 728.035767,176.098587 
	C719.500305,181.315125 716.041138,190.201126 718.108887,201.261078 
	C719.549744,208.967712 725.316772,214.293015 734.504456,215.763901 
	C744.273682,217.327896 753.422791,215.862778 761.132568,208.998291 
	C762.585876,207.704300 764.116211,206.496826 765.947754,204.968430 
	C766.349182,206.334900 766.810791,207.233551 766.849487,208.150070 
	C767.059448,213.122437 769.971863,215.362000 774.560669,215.474106 
	C781.551941,215.644897 788.558594,215.697540 795.539551,215.379700 
	C797.059143,215.310501 798.497864,213.465027 799.973877,212.437637 
	C798.557373,211.406570 797.114014,209.477798 795.729553,209.519257 
	C792.130737,209.626984 791.424255,207.879089 791.520081,204.958206 
	C791.569153,203.460800 791.527527,201.960434 791.526978,199.470978 
M575.150940,149.583649 
	C575.142578,146.758591 574.930176,143.915543 575.177368,141.113022 
	C575.488342,137.586517 573.844604,136.173676 570.601501,136.161942 
	C562.612244,136.133041 554.617126,135.997711 546.638306,136.287109 
	C545.122253,136.342102 543.670044,138.154816 542.188354,139.156540 
	C543.581116,140.165512 544.956177,141.982422 546.370300,142.013351 
	C549.213989,142.075531 550.417969,143.134506 550.421631,145.765411 
	C550.449402,165.738480 550.499268,185.712082 550.323059,205.683563 
	C550.312073,206.923691 548.571167,208.282654 547.412781,209.343536 
	C546.070007,210.573227 544.481140,211.534271 542.999146,212.611954 
	C544.807922,213.586151 546.599609,215.365387 548.428162,215.404083 
	C560.406921,215.657501 572.393616,215.536713 584.377747,215.530167 
	C585.208069,215.529709 586.254333,215.769745 586.824097,215.366547 
	C588.031372,214.512146 588.990234,213.306686 590.050903,212.245178 
	C588.961975,211.216080 587.994568,209.530685 586.757446,209.301453 
	C584.531006,208.888947 582.136475,209.272842 579.823669,209.463516 
	C576.575378,209.731277 574.890320,208.767090 574.955505,205.065216 
	C575.131042,195.081543 574.589600,185.069153 575.139465,175.112717 
	C575.682068,165.288162 577.462463,155.462051 584.026489,147.640640 
	C585.953674,145.344223 590.185303,143.081604 592.735229,143.643356 
	C596.785889,144.535706 594.787170,148.745468 594.222534,151.724915 
	C593.153320,157.367310 595.259521,160.700714 600.788879,162.056656 
	C610.335999,164.397873 617.367615,156.703079 614.579468,146.881714 
	C612.848694,140.785065 608.808044,136.751373 602.694763,135.281631 
	C594.937683,133.416656 587.708557,134.679749 582.138184,140.845490 
	C579.728271,143.513046 577.977295,146.775894 575.150940,149.583649 
M840.801147,120.910973 
	C841.440063,121.090828 842.076782,121.278893 842.718201,121.449310 
	C857.228333,125.304459 870.642761,118.706688 874.501709,105.835571 
	C875.368408,102.944565 875.803833,100.162018 872.361633,98.636559 
	C869.106750,97.194115 867.771057,99.626320 865.903809,101.659218 
	C863.289551,104.505402 860.519348,108.178101 857.135193,109.166580 
	C846.739014,112.203178 839.371277,109.700775 835.306702,101.621735 
	C833.965576,98.955925 832.056152,97.218239 828.953247,98.694702 
	C826.009644,100.095329 825.896851,102.476547 826.774841,105.440979 
	C828.897705,112.607994 833.231567,117.678009 840.801147,120.910973 
M888.855530,138.128723 
	C892.820557,137.568604 895.047302,134.695251 894.750122,131.304337 
	C894.477722,128.196060 893.096130,124.217964 890.797791,122.439247 
	C884.420776,117.503952 870.702576,122.049957 867.253662,129.603195 
	C872.533264,128.559601 876.623779,129.947922 880.229004,134.323898 
	C881.929077,136.387314 885.440369,136.958496 888.855530,138.128723 
z"/>
<path fill="#0EA279" opacity="1.000000" stroke="none" 
	d="
M65.099548,297.317841 
	C67.958420,294.572083 70.562675,292.094360 73.907333,288.912201 
	C67.163368,289.271393 61.413250,289.796204 55.668621,289.741791 
	C54.079849,289.726746 52.507389,287.988525 50.927437,287.040924 
	C52.556824,286.026672 54.122459,284.287750 55.827881,284.137695 
	C60.458248,283.730347 65.163200,284.208954 69.805206,283.873810 
	C71.320770,283.764404 72.733528,282.231018 74.193298,281.348877 
	C72.777496,280.248932 71.497543,278.516754 69.918343,278.177460 
	C66.365784,277.414215 62.651047,277.444061 59.028648,276.955750 
	C56.031940,276.551758 53.074993,275.514984 54.102959,271.660858 
	C55.087490,267.969574 57.981850,268.971405 60.654938,269.746399 
	C66.485161,271.436859 72.347527,273.016418 79.511391,275.006470 
	C78.810516,271.798004 78.261093,270.016571 78.078865,268.198334 
	C77.951080,266.923248 78.324112,265.597961 78.473495,264.295105 
	C79.851883,264.900391 81.326897,265.359009 82.566315,266.175293 
	C83.151451,266.560669 83.309608,267.621918 83.619240,268.393768 
	C86.363266,275.233826 88.902939,276.623810 95.324486,273.612671 
	C103.154015,269.941254 110.815811,265.874603 118.349930,261.623993 
	C123.351685,258.802124 124.658546,255.300858 122.284859,249.743149 
	C118.501694,240.885315 113.840103,232.405563 109.950439,223.589249 
	C107.481995,217.994263 105.391907,212.174835 103.768066,206.280838 
	C102.128120,200.328354 104.220146,196.716339 110.482643,195.083160 
	C120.768242,192.400818 131.172150,190.125946 141.598511,188.040970 
	C155.121826,185.336700 155.729416,184.552628 151.606766,171.395721 
	C147.045547,156.839127 148.077301,142.547348 153.287033,128.341812 
	C156.086136,120.709419 155.585037,119.844833 147.748978,117.330833 
	C137.551498,114.059235 127.233017,110.714119 119.523041,103.009506 
	C114.564735,98.054657 110.005463,92.237930 106.926178,85.989960 
	C103.565025,79.170036 98.779755,76.353783 91.746742,75.937790 
	C89.605560,75.811142 87.194496,75.928658 85.444626,74.961586 
	C84.193497,74.270157 83.839050,71.956245 83.084503,70.366272 
	C84.513794,69.992485 86.001534,69.166389 87.359833,69.341896 
	C89.947380,69.676262 92.432159,70.859543 95.018112,71.129158 
	C96.229622,71.255470 98.242622,70.376656 98.679413,69.406982 
	C99.132919,68.400208 98.422882,66.537598 97.684113,65.397659 
	C96.336838,63.318737 94.011543,61.711182 93.196899,59.500629 
	C92.538147,57.713085 93.499512,55.328487 93.742210,53.208733 
	C95.613022,54.206825 98.170479,54.759079 99.181137,56.315655 
	C100.449501,58.269135 100.296944,61.095005 101.053993,63.449066 
	C101.524292,64.911469 102.543777,66.197258 103.680069,68.203873 
	C105.490051,62.614101 106.760811,58.439426 108.301498,54.366875 
	C108.436958,54.008804 110.339821,54.319363 112.125412,54.319363 
	C111.237404,57.397350 110.458481,60.019245 109.725075,62.653812 
	C107.403389,70.993881 109.905441,74.159203 118.668388,73.972801 
	C120.166740,73.940926 121.820030,73.422974 123.116127,73.902145 
	C124.340340,74.354744 126.061150,75.903053 125.978325,76.827347 
	C125.877510,77.952469 124.244247,79.591454 123.048935,79.817215 
	C121.178505,80.170471 119.104874,79.273888 117.145050,79.387016 
	C115.766144,79.466629 113.834167,79.993195 113.261841,80.971283 
	C112.768555,81.814293 113.477753,83.871262 114.287117,84.889145 
	C125.246956,98.672630 139.982285,104.950294 157.202332,106.174294 
	C160.396423,106.401329 162.480804,104.840012 162.897430,101.826866 
	C163.509872,97.397453 163.949234,92.902641 163.941345,88.436607 
	C163.916580,74.399696 170.961212,64.393105 182.061127,56.996857 
	C189.635590,51.949726 200.357971,54.047920 207.971115,61.615677 
	C217.101212,70.691315 219.069122,81.899323 217.722000,94.317490 
	C216.647522,104.222412 216.250641,114.223274 216.083817,124.190437 
	C216.034180,127.155640 217.528183,130.259369 218.757614,133.108612 
	C220.968750,138.233032 223.974655,143.050064 225.829224,148.285721 
	C230.341782,161.025146 243.602737,168.131943 256.186279,164.077408 
	C261.613281,162.328781 265.017853,158.979141 265.191193,152.914902 
	C265.232605,151.467026 265.528503,149.795609 266.334473,148.680130 
	C266.888184,147.913788 268.948120,147.312286 269.577454,147.743210 
	C270.492859,148.369980 271.117065,149.988800 271.129700,151.192322 
	C271.140198,152.196594 269.768616,153.158829 269.592499,154.235153 
	C269.340576,155.774185 269.054291,157.850052 269.848572,158.850037 
	C270.510315,159.683167 272.782684,159.658722 274.203705,159.359283 
	C275.944275,158.992493 277.555725,157.973892 279.196533,157.182251 
	C281.583618,156.030533 284.460175,152.877197 286.372589,156.727081 
	C288.462524,160.934265 283.971832,161.249557 281.465759,162.371460 
	C279.194397,163.388290 276.737854,164.005814 274.509827,165.098755 
	C273.478027,165.604904 272.046326,166.900650 272.129395,167.699844 
	C272.255188,168.910461 273.351105,170.725861 274.377838,171.000061 
	C277.059540,171.716293 279.996704,171.463379 282.691162,172.149750 
	C284.003876,172.484146 285.002075,174.053162 286.142609,175.063324 
	C284.802734,175.641861 283.195709,177.018784 282.164856,176.673843 
	C273.145966,173.656021 264.098145,175.102539 254.956879,175.668488 
	C247.872986,176.107071 240.599487,175.991852 233.613281,174.864578 
	C224.894440,173.457748 218.695816,167.933105 214.827026,159.895447 
	C214.001022,158.179367 212.783264,156.651871 211.688065,154.947357 
	C207.490814,163.957016 203.424927,172.457932 199.571869,181.054260 
	C197.731750,185.159683 200.354996,187.728378 203.438034,189.722153 
	C211.967255,195.237915 220.583313,200.619202 229.145172,206.084763 
	C231.389893,207.517700 233.710022,208.887695 235.740768,210.590439 
	C242.271622,216.066315 241.069748,224.399719 233.335617,227.876358 
	C231.821945,228.556793 230.190536,229.007980 228.748672,229.808502 
	C225.984650,231.343094 225.244308,233.609222 226.633041,236.555176 
	C228.041306,239.542557 230.423950,239.643326 232.922226,238.519974 
	C236.714691,236.814651 240.360458,234.786057 244.107147,232.974609 
	C245.593765,232.255844 247.264786,231.131104 248.703857,231.319809 
	C250.183990,231.513885 251.895157,232.842285 252.672409,234.164047 
	C253.012848,234.743042 251.566147,237.092545 250.437241,237.665924 
	C248.098740,238.853653 245.373932,239.250473 242.911011,240.231323 
	C239.898804,241.430908 236.992249,242.895844 234.040009,244.246017 
	C234.074387,244.811691 234.108765,245.377380 234.143143,245.943054 
	C236.401138,246.333130 238.651596,246.992050 240.918747,247.055634 
	C245.243896,247.176941 249.592636,246.737381 253.901047,247.011215 
	C255.262344,247.097733 256.526337,248.715393 257.834839,249.632324 
	C256.565613,250.708130 255.341034,252.627884 254.018661,252.697754 
	C250.396744,252.889160 246.736496,252.253387 243.085770,252.043335 
	C241.144089,251.931610 239.190659,252.023529 237.112457,252.023529 
	C236.676956,256.359650 239.828842,257.320679 242.411880,258.511261 
	C244.352722,259.405853 246.614990,259.597992 248.567749,260.473877 
	C249.734207,260.997101 250.579697,262.235870 251.569458,263.153015 
	C250.171539,264.071777 248.659470,265.885864 247.399155,265.725220 
	C244.672012,265.377563 241.748947,264.506683 239.475266,262.994141 
	C223.777557,252.551270 205.888565,248.923996 187.771179,245.917664 
	C185.637192,245.563553 183.217773,245.770035 181.426437,244.800583 
	C179.127640,243.556488 176.284912,241.694778 175.639969,239.517548 
	C175.099091,237.691544 176.767914,234.270798 178.513245,232.878586 
	C184.490295,228.110855 190.997009,224.013443 197.151810,219.457825 
	C198.748047,218.276306 199.797440,216.355957 201.098022,214.774979 
	C199.398407,213.580231 197.851608,212.006836 195.975403,211.249695 
	C178.501633,204.198105 160.598526,204.549454 142.485413,208.283463 
	C138.283035,209.149780 133.978195,209.678650 129.694260,209.952850 
	C123.146675,210.371933 121.462769,212.150497 123.674858,218.476578 
	C127.459435,229.299591 131.746078,239.948242 135.880844,250.647324 
	C140.735260,263.208618 139.986328,265.643066 127.477989,270.637695 
	C120.725014,273.334167 113.543907,275.036560 106.462296,276.814423 
	C94.395660,279.843750 84.630890,286.365906 76.514809,295.612976 
	C74.536919,297.866516 72.778786,300.508270 70.349617,302.103729 
	C68.642693,303.224884 65.970039,302.875610 63.728607,303.182922 
	C64.100716,301.317200 64.472824,299.451538 65.099548,297.317841 
M207.114502,236.345276 
	C206.805054,236.729950 206.146698,237.271027 206.238495,237.475845 
	C207.605225,240.524567 215.458237,242.560440 217.610794,240.129562 
	C218.689804,238.911041 218.481613,236.552704 218.855591,234.709869 
	C217.550919,234.464340 216.184280,233.847015 214.954712,234.052002 
	C212.522934,234.457336 210.166946,235.317413 207.114502,236.345276 
z"/>
<path fill="#F9F9F9" opacity="1.000000" stroke="none" 
	d="
M396.692291,142.078491 
	C393.850677,144.842560 393.821655,147.245071 395.893158,150.277603 
	C408.374664,168.549545 420.626038,186.979294 433.201233,205.185745 
	C434.478973,207.035614 437.432922,207.695663 439.543152,209.013306 
	C441.061432,209.961304 442.470123,211.084839 443.927704,212.130066 
	C442.387360,213.261169 440.883270,215.307541 439.300598,215.370209 
	C430.980652,215.699646 422.640869,215.528397 414.307953,215.529633 
	C408.308258,215.530518 402.308136,215.569443 396.309021,215.509857 
	C393.784424,215.484787 390.833527,215.519135 391.025452,211.871368 
	C391.200378,208.546768 393.923401,209.022186 396.289032,208.891647 
	C398.309540,208.780151 400.301086,208.143372 402.305420,207.738953 
	C401.547180,205.804642 401.098206,203.666580 399.980133,201.969315 
	C393.117737,191.551773 386.116974,181.225113 379.124451,170.893814 
	C378.229004,169.570847 377.114044,168.396423 375.985931,167.012268 
	C371.547638,170.237167 368.732819,173.478897 369.071106,179.133911 
	C369.528107,186.772873 369.178436,194.459686 369.186554,202.125977 
	C369.193542,208.728073 369.383209,208.910324 375.845062,208.831116 
	C376.511292,208.822952 377.371460,208.580078 377.806976,208.900681 
	C378.983734,209.767044 380.793365,210.853531 380.825684,211.899902 
	C380.860046,213.010742 379.331573,214.819382 378.143188,215.173141 
	C376.139038,215.769730 373.864899,215.516083 371.704071,215.520248 
	C360.871338,215.541153 350.038361,215.559601 339.205841,215.506561 
	C336.776062,215.494659 333.673035,215.915802 333.573975,212.260956 
	C333.475220,208.616959 336.270355,208.661087 338.911835,208.944382 
	C341.953186,209.270554 343.152344,207.646362 343.301086,204.875153 
	C343.363403,203.713959 343.462585,202.552124 343.462982,201.390564 
	C343.472107,173.725281 343.453949,146.059982 343.486237,118.394730 
	C343.491486,113.893059 343.469421,109.788162 336.898438,110.817650 
	C335.964355,110.963989 334.648193,108.671524 333.508850,107.507797 
	C334.741638,106.405464 335.893890,104.482315 337.222107,104.351967 
	C341.515045,103.930634 345.872620,104.157951 350.205292,104.154282 
	C358.871521,104.146950 367.546295,103.947731 376.197449,104.308754 
	C378.144379,104.389999 381.445526,106.255966 381.625977,107.628654 
	C382.062836,110.951622 379.004791,111.074806 376.348907,111.023468 
	C369.247772,110.886192 369.187927,110.976974 369.185760,118.281723 
	C369.182037,130.781097 369.140808,143.280869 369.251923,155.779251 
	C369.263306,157.061737 370.202301,158.335953 370.710876,159.614014 
	C371.799500,158.998352 373.173950,158.625488 373.933929,157.730728 
	C385.789734,143.772400 397.580505,129.758606 409.332001,115.712219 
	C410.216064,114.655533 410.689545,113.255371 411.892914,111.008316 
	C409.462799,111.008316 407.920593,111.393585 406.732422,110.909622 
	C405.286316,110.320595 404.138275,108.999771 402.861298,107.995499 
	C404.083130,106.732475 405.220764,104.492989 406.541687,104.379097 
	C411.670807,103.936829 416.858215,104.164116 422.023926,104.154259 
	C425.356934,104.147896 428.747772,103.803818 431.997345,104.327240 
	C433.501099,104.569450 434.729401,106.521538 436.082550,107.698425 
	C434.691620,108.798225 433.165192,110.973465 431.932434,110.818138 
	C425.380280,109.992584 421.278534,113.382820 417.457092,117.919746 
	C410.699707,125.942459 403.790192,133.837082 396.692291,142.078491 
z"/>
<path fill="#FBFBFB" opacity="1.000000" stroke="none" 
	d="
M815.417480,144.419708 
	C825.568420,135.093231 837.716797,134.382568 850.234497,134.594238 
	C854.594910,134.667969 859.517395,137.563171 862.871887,133.068970 
	C866.133972,135.807007 869.141907,138.647720 872.460205,141.061829 
	C886.181641,151.044067 885.368774,171.385025 870.715759,180.003632 
	C861.462341,185.446350 851.256592,186.332245 840.801453,185.592987 
	C838.480225,185.428879 836.165955,185.165558 833.849609,184.935959 
	C829.970703,184.551453 827.798157,186.581085 827.213928,190.142731 
	C826.606934,193.843170 828.956299,195.710785 832.234985,196.332550 
	C834.664307,196.793243 837.178406,196.898163 839.660461,196.973312 
	C848.466980,197.239868 857.327759,196.904556 866.070740,197.774612 
	C876.903503,198.852615 886.349243,203.130035 889.539307,214.700928 
	C893.088623,227.574921 890.979248,239.564209 880.944580,249.138107 
	C872.867004,256.844849 862.589050,259.550629 851.813782,260.588440 
	C841.982666,261.535370 832.223755,261.231354 822.698608,258.165344 
	C814.992676,255.684921 808.923950,251.444336 806.943054,243.111374 
	C804.859314,234.345444 808.270386,227.598282 815.022705,222.083267 
	C819.161621,218.702850 819.015991,215.880478 814.923035,212.243958 
	C807.274048,205.447861 806.851196,198.285736 813.679932,190.705780 
	C814.677551,189.598389 815.781982,188.587067 816.838806,187.533127 
	C820.621948,183.760727 820.561157,181.199020 816.599243,177.478119 
	C806.577209,168.065811 806.022522,155.379227 815.417480,144.419708 
M847.438293,217.490768 
	C842.800842,217.664276 837.649353,216.607361 833.639465,218.282867 
	C826.595642,221.226074 824.116516,228.063339 823.726807,235.444153 
	C823.352112,242.540634 825.075989,248.983276 832.085632,252.116714 
	C842.305908,256.685303 852.567566,256.218506 862.003662,249.909271 
	C869.275024,245.047394 872.835876,235.212875 869.887268,226.975449 
	C868.761292,223.829865 865.632690,220.336670 862.593079,219.195236 
	C858.260437,217.568192 853.169250,217.960876 847.438293,217.490768 
M833.883301,156.700714 
	C834.237366,161.995377 834.191711,167.356949 835.063293,172.565002 
	C835.858582,177.317703 839.193726,179.941559 844.228821,180.129868 
	C850.003662,180.345840 853.690002,178.544891 855.326477,173.610931 
	C858.177002,165.016357 858.051147,156.209656 855.419434,147.594360 
	C853.911377,142.657211 850.074402,140.703171 844.450073,140.918808 
	C839.449463,141.110519 836.347595,143.675919 835.119019,148.395279 
	C834.495483,150.790649 834.338074,153.307358 833.883301,156.700714 
z"/>
<path fill="#FBFBFB" opacity="1.000000" stroke="none" 
	d="
M707.284790,193.169800 
	C701.462769,212.800735 682.764954,222.582321 663.870972,215.635742 
	C659.718384,214.109009 656.472534,210.203217 652.673950,207.589523 
	C650.776001,206.283630 647.851624,204.040634 646.665955,204.660233 
	C644.536072,205.773193 642.801819,208.525696 641.942139,210.960312 
	C640.898865,213.914703 640.671021,216.418106 636.374023,216.295837 
	C628.163452,216.062180 628.154358,216.347946 628.154236,207.986282 
	C628.153809,177.503204 628.139343,147.020126 628.172791,116.537086 
	C628.177002,112.740532 628.745667,108.827370 622.727356,109.731667 
	C621.952087,109.848145 620.146851,107.962799 620.146667,107.004494 
	C620.146484,106.067177 621.825745,104.338440 622.800110,104.315247 
	C631.789673,104.101288 640.794983,103.995911 649.769531,104.416306 
	C650.873352,104.468010 652.662048,107.765739 652.708252,109.595268 
	C652.985901,120.582184 652.842041,131.579605 652.858459,142.573486 
	C652.859619,143.358429 653.012695,144.143158 653.140991,145.364960 
	C654.043762,144.975235 654.751709,144.893250 655.075623,144.497162 
	C664.068481,133.500427 675.839478,132.694778 688.189636,136.269043 
	C700.281250,139.768463 705.644836,149.467300 707.862549,161.065353 
	C709.881226,171.622513 709.897461,182.240524 707.284790,193.169800 
M677.804871,205.315277 
	C678.733154,203.750320 680.121582,202.293442 680.518494,200.603668 
	C684.418762,183.997681 684.806580,167.258072 680.265259,150.801285 
	C677.876587,142.145401 667.280090,139.900574 661.068909,146.440948 
	C658.340149,149.314346 655.726074,153.382553 655.307800,157.157364 
	C654.125305,167.829086 653.766235,178.630753 653.803406,189.378738 
	C653.817261,193.360504 655.243713,197.633698 657.063171,201.252502 
	C661.125122,209.331146 669.725098,211.057404 677.804871,205.315277 
z"/>
<path fill="#F8F8F8" opacity="1.000000" stroke="none" 
	d="
M501.693237,205.407013 
	C494.779327,213.885178 486.174835,217.534882 475.624207,217.228241 
	C462.547455,216.848206 454.810974,210.377945 454.061615,197.324158 
	C453.289856,183.879730 453.612061,170.372162 453.471863,156.892059 
	C453.437225,153.561905 453.483978,150.230972 453.459045,146.900650 
	C453.436768,143.924957 452.833374,141.746643 448.923645,142.034882 
	C447.647827,142.128937 446.240936,140.445786 444.893982,139.575439 
	C446.230713,138.435913 447.538483,136.351089 448.908844,136.309113 
	C458.355835,136.019791 467.815857,136.156921 477.853729,136.156921 
	C477.853729,139.824402 477.853699,143.102081 477.853699,146.379761 
	C477.853699,161.700073 477.819855,177.020538 477.882965,192.340591 
	C477.895264,195.323975 477.993073,198.362381 478.558624,201.277008 
	C479.889984,208.138596 485.106598,210.748306 491.082031,206.933472 
	C494.550903,204.718887 497.655121,201.263580 499.732208,197.676804 
	C504.170227,190.012985 504.884033,181.291504 504.970642,172.584549 
	C505.045166,165.091644 505.055511,157.596497 504.953217,150.104263 
	C504.910461,146.972931 506.194794,143.219193 501.682190,141.660828 
	C501.299530,141.528671 500.995728,139.459534 501.400848,139.074280 
	C502.626892,137.908340 504.193878,136.375366 505.674438,136.324036 
	C513.446655,136.054550 521.233154,136.197983 529.533142,136.197983 
	C529.533142,138.394348 529.533142,140.187408 529.533142,141.980469 
	C529.533203,162.296539 529.530334,182.612625 529.536072,202.928696 
	C529.537048,206.505768 529.172974,210.261963 534.863892,209.404114 
	C535.752136,209.270218 537.898804,211.255966 537.767639,211.932663 
	C537.522034,213.199173 536.057678,215.175430 535.059326,215.200165 
	C527.088013,215.397659 519.058044,215.671936 511.160461,214.838531 
	C508.919037,214.602005 507.044006,210.800125 505.022369,208.613541 
	C503.996155,207.503632 503.017578,206.349701 501.693237,205.407013 
z"/>
<path fill="#FAFAFA" opacity="1.000000" stroke="none" 
	d="
M791.526978,199.966187 
	C791.527527,201.960434 791.569153,203.460800 791.520081,204.958206 
	C791.424255,207.879089 792.130737,209.626984 795.729553,209.519257 
	C797.114014,209.477798 798.557373,211.406570 799.973877,212.437653 
	C798.497864,213.465027 797.059143,215.310501 795.539551,215.379700 
	C788.558594,215.697540 781.551941,215.644897 774.560669,215.474106 
	C769.971863,215.362000 767.059448,213.122437 766.849487,208.150070 
	C766.810791,207.233551 766.349182,206.334900 765.947754,204.968430 
	C764.116211,206.496826 762.585876,207.704300 761.132568,208.998291 
	C753.422791,215.862778 744.273682,217.327896 734.504456,215.763901 
	C725.316772,214.293015 719.549744,208.967712 718.108887,201.261078 
	C716.041138,190.201126 719.500305,181.315125 728.035767,176.098587 
	C736.245422,171.081161 745.499268,169.683884 754.822693,169.194748 
	C768.483582,168.478058 766.960510,169.197769 766.967346,156.155930 
	C766.968384,154.171219 766.883789,152.143112 766.482727,150.208908 
	C764.630188,141.275284 751.947449,137.031082 745.333740,143.452179 
	C743.610962,145.124878 742.863831,148.936707 743.317627,151.470749 
	C744.150085,156.119781 745.273071,160.405487 740.449036,163.429367 
	C736.050476,166.186493 729.189453,165.407898 725.545715,161.924240 
	C722.277954,158.800049 720.812927,152.284164 723.912598,148.079498 
	C726.824036,144.130188 730.872131,140.150253 735.300659,138.350601 
	C748.669373,132.917923 762.653015,133.011841 776.335693,137.394028 
	C786.661743,140.701172 791.423889,148.108032 791.504700,159.496841 
	C791.599182,172.820938 791.526917,186.146210 791.526978,199.966187 
M762.767151,199.163437 
	C767.049866,193.256180 767.546570,186.448395 766.783447,179.605042 
	C766.615417,178.098236 763.952576,175.793060 762.328064,175.695526 
	C749.299683,174.913269 741.216187,183.977524 743.066772,196.833237 
	C744.088745,203.932999 749.448853,207.256424 756.081116,204.481369 
	C758.407593,203.507950 760.241028,201.356461 762.767151,199.163437 
z"/>
<path fill="#F8F8F8" opacity="1.000000" stroke="none" 
	d="
M575.538940,149.675995 
	C577.977295,146.775894 579.728271,143.513046 582.138184,140.845490 
	C587.708557,134.679749 594.937683,133.416656 602.694763,135.281631 
	C608.808044,136.751373 612.848694,140.785065 614.579468,146.881714 
	C617.367615,156.703079 610.335999,164.397873 600.788879,162.056656 
	C595.259521,160.700714 593.153320,157.367310 594.222534,151.724915 
	C594.787170,148.745468 596.785889,144.535706 592.735229,143.643356 
	C590.185303,143.081604 585.953674,145.344223 584.026489,147.640640 
	C577.462463,155.462051 575.682068,165.288162 575.139465,175.112717 
	C574.589600,185.069153 575.131042,195.081543 574.955505,205.065216 
	C574.890320,208.767090 576.575378,209.731277 579.823669,209.463516 
	C582.136475,209.272842 584.531006,208.888947 586.757446,209.301453 
	C587.994568,209.530685 588.961975,211.216080 590.050903,212.245178 
	C588.990234,213.306686 588.031372,214.512146 586.824097,215.366547 
	C586.254333,215.769745 585.208069,215.529709 584.377747,215.530167 
	C572.393616,215.536713 560.406921,215.657501 548.428162,215.404083 
	C546.599609,215.365387 544.807922,213.586151 542.999146,212.611969 
	C544.481140,211.534271 546.070007,210.573227 547.412781,209.343536 
	C548.571167,208.282654 550.312073,206.923691 550.323059,205.683563 
	C550.499268,185.712082 550.449402,165.738480 550.421631,145.765411 
	C550.417969,143.134506 549.213989,142.075531 546.370300,142.013351 
	C544.956177,141.982422 543.581116,140.165512 542.188354,139.156540 
	C543.670044,138.154816 545.122253,136.342102 546.638306,136.287109 
	C554.617126,135.997711 562.612244,136.133041 570.601501,136.161942 
	C573.844604,136.173676 575.488342,137.586517 575.177368,141.113022 
	C574.930176,143.915543 575.142578,146.758591 575.538940,149.675995 
z"/>
<path fill="#F8F8F8" opacity="1.000000" stroke="none" 
	d="
M840.431030,120.781464 
	C833.231567,117.678009 828.897705,112.607994 826.774841,105.440979 
	C825.896851,102.476547 826.009644,100.095329 828.953247,98.694702 
	C832.056152,97.218239 833.965576,98.955925 835.306702,101.621735 
	C839.371277,109.700775 846.739014,112.203178 857.135193,109.166580 
	C860.519348,108.178101 863.289551,104.505402 865.903809,101.659218 
	C867.771057,99.626320 869.106750,97.194115 872.361633,98.636559 
	C875.803833,100.162018 875.368408,102.944565 874.501709,105.835571 
	C870.642761,118.706688 857.228333,125.304459 842.718201,121.449310 
	C842.076782,121.278893 841.440063,121.090828 840.431030,120.781464 
z"/>
<path fill="#F8F8F8" opacity="1.000000" stroke="none" 
	d="
M888.493225,138.167282 
	C885.440369,136.958496 881.929077,136.387314 880.229004,134.323898 
	C876.623779,129.947922 872.533264,128.559601 867.253662,129.603226 
	C870.702576,122.049957 884.420776,117.503952 890.797791,122.439247 
	C893.096130,124.217964 894.477722,128.196060 894.750122,131.304337 
	C895.047302,134.695251 892.820557,137.568604 888.493225,138.167282 
z"/>
<path fill="#111615" opacity="1.000000" stroke="none" 
	d="
M207.447067,236.167389 
	C210.166946,235.317413 212.522934,234.457336 214.954712,234.052002 
	C216.184280,233.847015 217.550919,234.464340 218.855591,234.709869 
	C218.481613,236.552704 218.689804,238.911041 217.610794,240.129562 
	C215.458237,242.560440 207.605225,240.524567 206.238495,237.475845 
	C206.146698,237.271027 206.805054,236.729950 207.447067,236.167389 
z"/>
<path fill="#151515" opacity="1.000000" stroke="none" 
	d="
M847.920166,217.490814 
	C853.169250,217.960876 858.260437,217.568192 862.593079,219.195236 
	C865.632690,220.336670 868.761292,223.829865 869.887268,226.975449 
	C872.835876,235.212875 869.275024,245.047394 862.003662,249.909271 
	C852.567566,256.218506 842.305908,256.685303 832.085632,252.116714 
	C825.075989,248.983276 823.352112,242.540634 823.726807,235.444153 
	C824.116516,228.063339 826.595642,221.226074 833.639465,218.282867 
	C837.649353,216.607361 842.800842,217.664276 847.920166,217.490814 
z"/>
<path fill="#141414" opacity="1.000000" stroke="none" 
	d="
M833.926636,156.234955 
	C834.338074,153.307358 834.495483,150.790649 835.119019,148.395279 
	C836.347595,143.675919 839.449463,141.110519 844.450073,140.918808 
	C850.074402,140.703171 853.911377,142.657211 855.419434,147.594360 
	C858.051147,156.209656 858.177002,165.016357 855.326477,173.610931 
	C853.690002,178.544891 850.003662,180.345840 844.228821,180.129868 
	C839.193726,179.941559 835.858582,177.317703 835.063293,172.565002 
	C834.191711,167.356949 834.237366,161.995377 833.926636,156.234955 
z"/>
<path fill="#141414" opacity="1.000000" stroke="none" 
	d="
M677.539062,205.582886 
	C669.725098,211.057404 661.125122,209.331146 657.063171,201.252502 
	C655.243713,197.633698 653.817261,193.360504 653.803406,189.378738 
	C653.766235,178.630753 654.125305,167.829086 655.307800,157.157364 
	C655.726074,153.382553 658.340149,149.314346 661.068909,146.440948 
	C667.280090,139.900574 677.876587,142.145401 680.265259,150.801285 
	C684.806580,167.258072 684.418762,183.997681 680.518494,200.603668 
	C680.121582,202.293442 678.733154,203.750320 677.539062,205.582886 
z"/>
<path fill="#151515" opacity="1.000000" stroke="none" 
	d="
M762.533386,199.453171 
	C760.241028,201.356461 758.407593,203.507950 756.081116,204.481369 
	C749.448853,207.256424 744.088745,203.932999 743.066772,196.833237 
	C741.216187,183.977524 749.299683,174.913269 762.328064,175.695526 
	C763.952576,175.793060 766.615417,178.098236 766.783447,179.605042 
	C767.546570,186.448395 767.049866,193.256180 762.533386,199.453171 
z"/>
</svg>